<?xml version="1.0" encoding="utf-8"?>
<!-- Generator: Adobe Illustrator 19.2.1, SVG Export Plug-In . SVG Version: 6.00 Build 0)  -->
<svg version="1.1" id="Layer_1" xmlns="http://www.w3.org/2000/svg" xmlns:xlink="http://www.w3.org/1999/xlink" x="0px" y="0px"
	 viewBox="0 0 25.8 25.8" style="enable-background:new 0 0 25.8 25.8;" xml:space="preserve">
<style type="text/css">
	.st0{fill:#BC2342;}
	.st1{fill:#BC2342;}
	.st2{fill:none;}
</style>
<path class="st0" d="M12.9,24.4c-6.3,0-11.5-5.2-11.5-11.5S6.6,1.4,12.9,1.4s11.5,5.2,11.5,11.5C24.4,19.3,19.3,24.4,12.9,24.4z
	 M12.9,0C5.8,0,0,5.8,0,12.9s5.8,12.9,12.9,12.9S25.8,20,25.8,12.9S20.1,0,12.9,0z"/>
<path class="st1" d="M12.9,2.1C7,2.1,2.1,7,2.1,12.9S7,23.6,12.9,23.6s10.8-4.8,10.8-10.8S18.8,2.1,12.9,2.1z M18.3,16.8l-1.5,1.5
	l-3.9-3.9L9,18.3l-1.5-1.5l3.9-3.9L7.5,9L9,7.5l3.9,3.9l3.9-3.9L18.3,9l-3.9,3.9L18.3,16.8z"/>
<path class="st2" d="M0,0h25.8v25.8H0V0z"/>
</svg>
